<svg xmlns="http://www.w3.org/2000/svg" width="64" height="64" viewBox="0 0 64 64" role="img" aria-label="Prophyion">
<mask id="promo-cut" maskUnits="userSpaceOnUse" x="0" y="0" width="64" height="64"><rect width="64" height="64" fill="#fff"/><g transform="translate(13.44 10.68) scale(0.58)" stroke="#000" stroke-width="4.14" stroke-linejoin="round"><circle cx="32" cy="15" r="7.5" fill="#000"/><rect x="28.5" y="20" width="7" height="6" fill="#000"/><rect x="23" y="25" width="18" height="4.5" rx="2.25" fill="#000"/><path fill="#000" d="M27 29.5H37C37 36 39 41 42 46H22C25 41 27 36 27 29.5Z"/><rect x="17" y="46" width="30" height="8" rx="3" fill="#000"/></g></mask><g mask="url(#promo-cut)"><path fill="#172033" d="M16 8H23V13H28.5V8H35.5V13H41V8H48V21H16Z"/><rect x="20" y="21" width="24" height="23" fill="#172033"/><rect x="18" y="44" width="28" height="4" fill="#172033"/><rect x="15" y="48" width="34" height="8" rx="2.5" fill="#172033"/></g><g transform="translate(13.44 10.68) scale(0.58)"><circle cx="32" cy="15" r="7.5" fill="#172033"/><rect x="28.5" y="20" width="7" height="6" fill="#172033"/><rect x="23" y="25" width="18" height="4.5" rx="2.25" fill="#172033"/><path fill="#172033" d="M27 29.5H37C37 36 39 41 42 46H22C25 41 27 36 27 29.5Z"/><rect x="17" y="46" width="30" height="8" rx="3" fill="#172033"/></g>
</svg>
